<?xml version="1.0" standalone="no"?>
<!DOCTYPE svg PUBLIC "-//W3C//DTD SVG 20010904//EN"
 "http://www.w3.org/TR/2001/REC-SVG-20010904/DTD/svg10.dtd">
<svg version="1.0" xmlns="http://www.w3.org/2000/svg"
 width="700.000000pt" height="700.000000pt" viewBox="0 0 700.000000 700.000000"
 preserveAspectRatio="xMidYMid meet">
<metadata>
Created by potrace 1.14, written by Peter Selinger 2001-2017
</metadata>
<g transform="translate(0.000000,700.000000) scale(0.100000,-0.100000)"
fill="#000000" stroke="none">
<path d="M3617 6724 c-1 -1 -31 -5 -66 -8 -321 -34 -708 -199 -971 -415 -201
-165 -390 -402 -508 -637 -81 -161 -158 -406 -177 -564 -1 -8 -6 -44 -10 -80
-15 -119 -9 -404 10 -500 3 -14 8 -41 11 -60 8 -49 39 -173 63 -246 68 -214
186 -428 337 -614 63 -78 207 -221 286 -284 378 -305 893 -460 1373 -413 130
12 174 20 345 62 92 23 276 97 386 156 446 238 778 643 931 1134 13 44 27 94
29 110 3 17 7 37 10 45 30 83 58 520 34 520 -6 0 -10 -10 -11 -22 -3 -95 -69
-306 -145 -463 -209 -433 -628 -762 -1100 -865 -122 -26 -211 -35 -354 -34
-187 0 -349 26 -500 79 -41 15 -84 29 -95 32 -94 29 -318 163 -430 258 -388
330 -589 771 -579 1275 1 85 5 164 7 175 3 11 8 40 12 65 4 25 9 54 12 65 2
11 6 30 9 43 2 12 16 59 30 103 161 511 564 907 1084 1065 l75 23 -48 -2 c-27
-1 -49 -3 -50 -3z"/>
<path d="M2230 6299 c-416 -223 -755 -582 -977 -1033 -112 -229 -199 -533
-229 -806 -16 -137 -8 -517 12 -611 3 -13 9 -51 15 -84 21 -124 91 -370 126
-437 50 -99 -113 93 -190 224 -55 93 -102 191 -139 293 -31 84 -86 285 -94
345 -2 19 -6 44 -9 55 -15 73 -24 183 -25 320 -1 101 8 244 17 258 2 4 2 7 -2
7 -17 0 -161 -338 -213 -500 -26 -82 -78 -281 -88 -340 -4 -25 -8 -47 -9 -50
-8 -39 -16 -84 -21 -125 -3 -27 -8 -58 -10 -67 -9 -49 -18 -250 -18 -388 0
-148 11 -368 20 -381 2 -4 6 -27 8 -53 20 -192 105 -509 204 -756 38 -97 146
-314 189 -382 12 -21 23 -40 23 -43 0 -10 173 -260 228 -329 167 -209 336
-378 537 -535 416 -325 899 -540 1400 -625 17 -3 46 -8 65 -11 19 -3 42 -8 50
-10 8 -2 53 -7 100 -11 47 -4 99 -8 115 -10 44 -4 414 -4 455 1 19 2 71 6 115
10 44 4 82 8 86 10 3 2 28 7 55 10 140 19 525 115 569 143 5 4 15 7 21 8 20 3
257 105 338 146 657 329 1211 917 1487 1578 22 52 44 104 49 115 58 130 152
492 176 677 3 24 7 54 10 68 26 151 26 619 0 780 -2 14 -7 43 -10 65 -14 99
-19 127 -43 235 -112 509 -354 988 -701 1388 -58 66 -82 80 -58 35 12 -25 53
-146 61 -183 1 -8 8 -35 15 -60 13 -50 16 -61 29 -140 37 -211 43 -460 17
-655 -14 -105 -21 -144 -42 -232 -124 -533 -445 -1001 -904 -1315 -129 -89
-178 -116 -342 -192 -122 -57 -353 -131 -473 -152 -299 -52 -583 -52 -855 2
-269 53 -542 162 -770 308 -166 106 -400 317 -527 476 -58 72 -183 252 -183
264 0 3 -13 27 -29 54 -81 138 -181 407 -217 587 -2 11 -6 31 -9 45 -3 14 -8
42 -11 64 -3 21 -7 48 -10 60 -7 39 -17 201 -17 291 0 352 82 697 240 1010 30
61 61 117 67 125 7 8 15 22 18 30 9 24 138 201 182 249 65 71 127 132 186 183
30 26 51 48 45 48 -5 0 -53 -23 -105 -51z"/>
<path d="M5455 5405 c-27 -75 -66 -164 -98 -225 -26 -50 -124 -208 -137 -220
-3 -3 -23 -27 -44 -55 -133 -169 -344 -340 -551 -446 -241 -123 -446 -173
-715 -174 -172 0 -242 9 -400 50 -140 37 -319 115 -449 195 -25 16 -47 27 -49
25 -2 -2 10 -30 28 -62 79 -144 238 -320 386 -425 80 -57 270 -158 297 -158 7
0 17 -3 21 -7 4 -5 11 -8 14 -9 4 0 34 -8 67 -18 33 -10 69 -20 80 -22 107
-21 156 -27 255 -29 187 -3 357 25 520 87 311 119 580 365 715 654 39 84 93
239 100 293 3 20 8 47 11 61 3 14 7 90 9 170 4 117 1 164 -15 245 -11 55 -22
104 -23 110 -2 5 -12 -13 -22 -40z"/>
</g>
</svg>
